<svg width="25" height="24" viewBox="0 0 25 24" fill="none" xmlns="http://www.w3.org/2000/svg">
<g clip-path="url(#clip0_3712_15901)">
<path d="M12.5 14V22H4.5C4.5 19.8783 5.34285 17.8434 6.84315 16.3431C8.34344 14.8429 10.3783 14 12.5 14ZM12.5 13C9.185 13 6.5 10.315 6.5 7C6.5 3.685 9.185 1 12.5 1C15.815 1 18.5 3.685 18.5 7C18.5 10.315 15.815 13 12.5 13ZM21.5 17H22.5V22H14.5V17H15.5V16C15.5 15.2044 15.8161 14.4413 16.3787 13.8787C16.9413 13.3161 17.7044 13 18.5 13C19.2956 13 20.0587 13.3161 20.6213 13.8787C21.1839 14.4413 21.5 15.2044 21.5 16V17ZM19.5 17V16C19.5 15.7348 19.3946 15.4804 19.2071 15.2929C19.0196 15.1054 18.7652 15 18.5 15C18.2348 15 17.9804 15.1054 17.7929 15.2929C17.6054 15.4804 17.5 15.7348 17.5 16V17H19.5Z" fill="white"/>
</g>
<defs>
<clipPath id="clip0_3712_15901">
<rect width="24" height="24" fill="white" transform="translate(0.5)"/>
</clipPath>
</defs>
</svg>
