<svg width="24" height="25" viewBox="0 0 24 25" fill="none" xmlns="http://www.w3.org/2000/svg">
<path d="M12.2929 5.78825C12.6834 5.39773 13.3166 5.39773 13.7071 5.78825L19.7071 11.7883C19.8946 11.9758 20 12.2301 20 12.4954C20 12.7606 19.8946 13.0149 19.7071 13.2025L13.7071 19.2025C13.3166 19.593 12.6834 19.593 12.2929 19.2025C11.9024 18.8119 11.9024 18.1788 12.2929 17.7883L16.5858 13.4954L5 13.4954C4.44772 13.4954 4 13.0476 4 12.4954C4 11.9431 4.44772 11.4954 5 11.4954L16.5858 11.4954L12.2929 7.20247C11.9024 6.81194 11.9024 6.17878 12.2929 5.78825Z" fill="#EF7D35"/>
</svg>
