<svg width="28" height="29" viewBox="0 0 28 29" fill="none" xmlns="http://www.w3.org/2000/svg">
<path d="M24.2581 19.7434C23.6511 18.6978 22.7487 15.7392 22.7487 11.875C22.7487 9.55436 21.8269 7.32876 20.1859 5.68782C18.545 4.04687 16.3194 3.125 13.9987 3.125C11.6781 3.125 9.45249 4.04687 7.81155 5.68782C6.1706 7.32876 5.24873 9.55436 5.24873 11.875C5.24873 15.7403 4.34529 18.6978 3.73826 19.7434C3.58325 20.0093 3.50107 20.3113 3.50001 20.619C3.49895 20.9267 3.57906 21.2293 3.73225 21.4962C3.88543 21.7631 4.10629 21.9848 4.37253 22.1391C4.63878 22.2934 4.94101 22.3748 5.24873 22.375H9.71233C9.9142 23.3628 10.4511 24.2506 11.2321 24.8882C12.0132 25.5258 12.9905 25.874 13.9987 25.874C15.007 25.874 15.9843 25.5258 16.7653 24.8882C17.5464 24.2506 18.0833 23.3628 18.2851 22.375H22.7487C23.0564 22.3746 23.3584 22.2931 23.6245 22.1387C23.8906 21.9843 24.1113 21.7625 24.2644 21.4957C24.4175 21.2288 24.4975 20.9263 24.4964 20.6187C24.4953 20.3111 24.4131 20.0092 24.2581 19.7434ZM13.9987 24.125C13.456 24.1248 12.9267 23.9565 12.4837 23.6431C12.0406 23.3297 11.7056 22.8867 11.5247 22.375H16.4728C16.2919 22.8867 15.9569 23.3297 15.5138 23.6431C15.0707 23.9565 14.5414 24.1248 13.9987 24.125ZM5.24873 20.625C6.09092 19.1769 6.99873 15.8212 6.99873 11.875C6.99873 10.0185 7.73623 8.23801 9.04898 6.92525C10.3617 5.6125 12.1422 4.875 13.9987 4.875C15.8552 4.875 17.6357 5.6125 18.9485 6.92525C20.2612 8.23801 20.9987 10.0185 20.9987 11.875C20.9987 15.818 21.9044 19.1736 22.7487 20.625H5.24873Z" fill="white"/>
<ellipse cx="5.59844" cy="7.50005" rx="4.2" ry="4.2" fill="#EC2828" stroke="white"/>
</svg>
