<svg width="24" height="24" viewBox="0 0 24 24" fill="none" xmlns="http://www.w3.org/2000/svg">
<path d="M5 4.8C5 3.80589 5.7835 3 6.75 3H17.25C18.2165 3 19 3.80589 19 4.8V20.1C19 20.4371 18.8168 20.746 18.5254 20.9002C18.2339 21.0545 17.8831 21.0283 17.6164 20.8324L12 16.706L6.38358 20.8324C6.11687 21.0283 5.76605 21.0545 5.47462 20.9002C5.18318 20.746 5 20.4371 5 20.1V4.8ZM17.25 4.8L6.75 4.8V18.3511L11.4914 14.8676C11.7957 14.6441 12.2043 14.6441 12.5086 14.8676L17.25 18.3511V4.8Z" fill="#727478"/>
</svg>
