<svg width="20" height="20" viewBox="0 0 20 20" fill="none" xmlns="http://www.w3.org/2000/svg">
<path d="M9.99984 3.33341C6.31794 3.33341 3.33317 6.31818 3.33317 10.0001C3.33317 13.682 6.31794 16.6667 9.99984 16.6667C13.6817 16.6667 16.6665 13.682 16.6665 10.0001C16.6665 6.31818 13.6817 3.33341 9.99984 3.33341ZM1.6665 10.0001C1.6665 5.39771 5.39746 1.66675 9.99984 1.66675C14.6022 1.66675 18.3332 5.39771 18.3332 10.0001C18.3332 14.6025 14.6022 18.3334 9.99984 18.3334C5.39746 18.3334 1.6665 14.6025 1.6665 10.0001Z" fill="#CACACA"/>
<path d="M9.99984 11.6667C9.5396 11.6667 9.1665 11.2937 9.1665 10.8334L9.1665 5.83342C9.16651 5.37318 9.5396 5.00008 9.99984 5.00008C10.4601 5.00008 10.8332 5.37318 10.8332 5.83342L10.8332 10.8334C10.8332 11.2937 10.4601 11.6667 9.99984 11.6667Z" fill="#CACACA"/>
<path d="M8.74984 13.7501C8.74984 13.0597 9.30948 12.5001 9.99984 12.5001C10.6902 12.5001 11.2498 13.0597 11.2498 13.7501C11.2498 14.4404 10.6902 15.0001 9.99984 15.0001C9.30948 15.0001 8.74984 14.4404 8.74984 13.7501Z" fill="#CACACA"/>
</svg>
