<svg width="34" height="34" viewBox="0 0 34 34" fill="none" xmlns="http://www.w3.org/2000/svg">
<path d="M17.0002 33.6667C12.5787 33.6707 8.33713 31.916 5.21066 28.7895C2.08419 25.663 0.329525 21.4215 0.333503 17V16.6667C0.469816 9.98704 4.57983 4.03359 10.7774 1.53844C16.975 -0.956722 24.0636 0.488157 28.7902 5.21C33.5609 9.97681 34.9888 17.1489 32.4074 23.3794C29.826 29.6099 23.7443 33.6706 17.0002 33.6667ZM17.0002 19.35L21.3168 23.6667L23.6668 21.3167L19.3502 17L23.6668 12.6833L21.3168 10.3333L17.0002 14.65L12.6835 10.3333L10.3335 12.6833L14.6502 17L10.3335 21.3167L12.6835 23.6667L17.0002 19.3517V19.35Z" fill="#DFDFDF"/>
</svg>
