<svg width="24" height="25" viewBox="0 0 24 25" fill="none" xmlns="http://www.w3.org/2000/svg">
<path d="M2 9.9231V4.4231C2 4.15788 2.10034 3.90353 2.27894 3.71599C2.45754 3.52845 2.69978 3.4231 2.95236 3.4231H20.0948C20.3474 3.4231 20.5896 3.52845 20.7682 3.71599C20.9468 3.90353 21.0471 4.15788 21.0471 4.4231V9.9231C20.4157 9.9231 19.8101 10.1865 19.3636 10.6553C18.9171 11.1242 18.6662 11.7601 18.6662 12.4231C18.6662 13.0861 18.9171 13.722 19.3636 14.1909C19.8101 14.6597 20.4157 14.9231 21.0471 14.9231V20.4231C21.0471 20.6883 20.9468 20.9427 20.7682 21.1302C20.5896 21.3177 20.3474 21.4231 20.0948 21.4231H2.95236C2.69978 21.4231 2.45754 21.3177 2.27894 21.1302C2.10034 20.9427 2 20.6883 2 20.4231V14.9231C2.63145 14.9231 3.23704 14.6597 3.68354 14.1909C4.13005 13.722 4.38089 13.0861 4.38089 12.4231C4.38089 11.7601 4.13005 11.1242 3.68354 10.6553C3.23704 10.1865 2.63145 9.9231 2 9.9231ZM13.4283 5.4231H3.90471V8.3911C4.62013 8.76339 5.22227 9.33815 5.64324 10.0506C6.06422 10.763 6.28728 11.5847 6.28728 12.4231C6.28728 13.2615 6.06422 14.0832 5.64324 14.7956C5.22227 15.508 4.62013 16.0828 3.90471 16.4551V19.4231H13.4283V5.4231ZM15.333 5.4231V19.4231H19.1424V16.4551C18.427 16.0828 17.8249 15.508 17.4039 14.7956C16.9829 14.0832 16.7599 13.2615 16.7599 12.4231C16.7599 11.5847 16.9829 10.763 17.4039 10.0506C17.8249 9.33815 18.427 8.76339 19.1424 8.3911V5.4231H15.333Z" fill="#8C9299"/>
<ellipse cx="19.1422" cy="7.4231" rx="2.85707" ry="3" fill="#EC2828" stroke="white"/>
</svg>
