<svg width="18" height="19" viewBox="0 0 18 19" fill="none" xmlns="http://www.w3.org/2000/svg">
<path d="M5.25 3.49536C5.25 2.66693 5.92157 1.99536 6.75 1.99536H11.25C12.0784 1.99536 12.75 2.66693 12.75 3.49536V4.99536H14.2423C14.2469 4.99532 14.2515 4.99532 14.2562 4.99536H15.75C16.1642 4.99536 16.5 5.33115 16.5 5.74536C16.5 6.15957 16.1642 6.49536 15.75 6.49536H14.9483L14.2978 15.6022C14.2418 16.3872 13.5886 16.9954 12.8017 16.9954H5.19834C4.41138 16.9954 3.75822 16.3872 3.70215 15.6022L3.05166 6.49536H2.25C1.83579 6.49536 1.5 6.15957 1.5 5.74536C1.5 5.33115 1.83579 4.99536 2.25 4.99536H3.74381C3.74846 4.99532 3.75311 4.99532 3.75774 4.99536H5.25V3.49536ZM6.75 4.99536H11.25V3.49536H6.75V4.99536ZM4.55548 6.49536L5.19834 15.4954H12.8017L13.4445 6.49536H4.55548Z" fill="#8C9299"/>
</svg>
