<svg width="61" height="22" viewBox="0 0 61 22" fill="none" xmlns="http://www.w3.org/2000/svg">
<path fill-rule="evenodd" clip-rule="evenodd" d="M0 0H61V3.14019C60.386 3.47237 59.9728 4.09429 59.9728 4.80672C59.9728 5.51915 60.386 6.14108 61 6.47326V9.86944C60.386 10.2016 59.9728 10.8235 59.9728 11.536C59.9728 12.2484 60.386 12.8703 61 13.2025V16.5994C60.386 16.9316 59.9728 17.5535 59.9728 18.266C59.9728 18.9784 60.386 19.6003 61 19.9325V22H0V19.9308C0.612227 19.5982 1.02404 18.9772 1.02404 18.266C1.02404 17.5547 0.612227 16.9337 0 16.6011V13.2008C0.612227 12.8682 1.02404 12.2472 1.02404 11.536C1.02404 10.8248 0.612227 10.2037 0 9.87114V6.47155C0.612227 6.13896 1.02404 5.51794 1.02404 4.80672C1.02404 4.09551 0.612227 3.47449 0 3.14189V0Z" fill="#EF7D35"/>
</svg>
