<svg width="28" height="28" viewBox="0 0 28 28" fill="none" xmlns="http://www.w3.org/2000/svg">
<g clip-path="url(#clip0_2303_48499)">
<path d="M15.1661 15.1666V21.6824L17.2987 19.5498L18.9496 21.2006L13.9994 26.1496L9.04922 21.2006L10.7001 19.5498L12.8327 21.6824V15.1666H15.1661ZM13.9994 2.33325C16.0025 2.33335 17.9358 3.06955 19.4316 4.40189C20.9274 5.73423 21.8815 7.56979 22.1124 9.55959C23.564 9.95545 24.8304 10.8489 25.6902 12.0837C26.5499 13.3185 26.9484 14.8162 26.8159 16.315C26.6835 17.8139 26.0285 19.2185 24.9655 20.2834C23.9025 21.3483 22.4991 22.0058 21.0006 22.1409L20.9994 19.8333C21.0012 17.9983 20.2825 16.2359 18.9978 14.9256C17.7131 13.6153 15.9653 12.8619 14.1307 12.8274C12.296 12.793 10.5212 13.4804 9.18827 14.7416C7.85538 16.0028 7.07102 17.737 7.00406 19.5708L6.99939 19.8333V22.1409C5.50075 22.006 4.09719 21.3486 3.03404 20.2838C1.97089 19.219 1.31577 17.8144 1.18317 16.3155C1.05058 14.8167 1.44895 13.3189 2.30865 12.084C3.16836 10.8491 4.43471 9.95554 5.88639 9.55959C6.11704 7.56969 7.07103 5.73398 8.5669 4.40159C10.0628 3.06921 11.9962 2.33309 13.9994 2.33325Z" fill="#EF7D35"/>
</g>
<defs>
<clipPath id="clip0_2303_48499">
<rect width="28" height="28" fill="white"/>
</clipPath>
</defs>
</svg>
