<svg width="18" height="18" viewBox="0 0 18 18" fill="none" xmlns="http://www.w3.org/2000/svg">
<path d="M9 1.5C9.41421 1.5 9.75 1.83579 9.75 2.25V10.1893L11.4697 8.46967C11.7626 8.17678 12.2374 8.17678 12.5303 8.46967C12.8232 8.76256 12.8232 9.23744 12.5303 9.53033L9.53033 12.5303C9.23744 12.8232 8.76256 12.8232 8.46967 12.5303L5.46967 9.53033C5.17678 9.23744 5.17678 8.76256 5.46967 8.46967C5.76256 8.17678 6.23744 8.17678 6.53033 8.46967L8.25 10.1893V2.25C8.25 1.83579 8.58579 1.5 9 1.5ZM3.75 12.75C4.16421 12.75 4.5 13.0858 4.5 13.5V15H13.5V13.5C13.5 13.0858 13.8358 12.75 14.25 12.75C14.6642 12.75 15 13.0858 15 13.5V15C15 15.8284 14.3284 16.5 13.5 16.5H4.5C3.67157 16.5 3 15.8284 3 15V13.5C3 13.0858 3.33579 12.75 3.75 12.75Z" fill="#EF7D35"/>
</svg>
