<svg width="20" height="20" viewBox="0 0 20 20" fill="none" xmlns="http://www.w3.org/2000/svg">
<path fill-rule="evenodd" clip-rule="evenodd" d="M9.99935 1.66675C14.6017 1.66675 18.3327 5.39771 18.3327 10.0001C18.3327 14.6025 14.6017 18.3334 9.99935 18.3334C5.39698 18.3334 1.66602 14.6025 1.66602 10.0001C1.66602 5.39771 5.39698 1.66675 9.99935 1.66675ZM9.99935 3.33341C6.31745 3.33341 3.33268 6.31818 3.33268 10.0001C3.33268 13.682 6.31745 16.6667 9.99935 16.6667C13.6812 16.6667 16.666 13.682 16.666 10.0001C16.666 6.31818 13.6812 3.33341 9.99935 3.33341ZM9.99935 15.0001C11.8403 15.0001 13.3327 13.5077 13.3327 11.6667H6.66602L6.67009 11.8331C6.75678 13.5968 8.21419 15.0001 9.99935 15.0001ZM7.08268 6.66675C7.77304 6.66675 8.33268 7.22639 8.33268 7.91675C8.33268 8.6071 7.77304 9.16675 7.08268 9.16675C6.39233 9.16675 5.83268 8.6071 5.83268 7.91675C5.83268 7.22639 6.39233 6.66675 7.08268 6.66675ZM14.166 7.91675C14.166 7.22639 13.6064 6.66675 12.916 6.66675C12.2257 6.66675 11.666 7.22639 11.666 7.91675C11.666 8.6071 12.2257 9.16675 12.916 9.16675C13.6064 9.16675 14.166 8.6071 14.166 7.91675Z" fill="#454647"/>
</svg>
