<svg width="18" height="19" viewBox="0 0 18 19" fill="none" xmlns="http://www.w3.org/2000/svg">
<path d="M9.00002 2.37036C9.2841 2.37036 9.5438 2.53086 9.67084 2.78495L11.605 6.65331L15.858 7.27192C16.1404 7.31301 16.3751 7.51088 16.4633 7.78236C16.5515 8.05383 16.478 8.35184 16.2736 8.55111L13.1783 11.5691L13.8746 15.8242C13.9206 16.1055 13.8032 16.3885 13.5717 16.5546C13.3403 16.7208 13.0346 16.7414 12.7829 16.6079L9.00002 14.6007L5.21718 16.6079C4.96546 16.7414 4.65979 16.7208 4.4283 16.5546C4.1968 16.3885 4.07947 16.1055 4.12549 15.8242L4.82179 11.5691L1.72645 8.55111C1.52207 8.35184 1.44852 8.05383 1.53673 7.78236C1.62493 7.51088 1.85959 7.31301 2.14207 7.27192L6.39502 6.65331L8.3292 2.78495C8.45625 2.53086 8.71594 2.37036 9.00002 2.37036ZM9.00002 4.79741L7.56147 7.67452C7.4517 7.89404 7.24148 8.04597 6.9986 8.0813L3.86131 8.53763L6.1486 10.7677C6.32386 10.9386 6.40471 11.1843 6.36518 11.4259L5.85003 14.574L8.64848 13.0891C8.86833 12.9724 9.13172 12.9724 9.35156 13.0891L12.15 14.574L11.6349 11.4259C11.5953 11.1843 11.6762 10.9386 11.8514 10.7677L14.1387 8.53763L11.0014 8.0813C10.7586 8.04597 10.5483 7.89404 10.4386 7.67452L9.00002 4.79741Z" fill="#8C9299"/>
</svg>
