<svg width="25" height="24" viewBox="0 0 25 24" fill="none" xmlns="http://www.w3.org/2000/svg">
<g clip-path="url(#clip0_1921_43418)">
<path d="M12.1986 23C10.6957 22.9999 9.22758 22.5483 7.98449 21.7037C6.74139 20.8592 5.78068 19.6606 5.22693 18.2635C4.67317 16.8664 4.55191 15.3352 4.87886 13.8683C5.20582 12.4015 5.96591 11.0667 7.06058 10.037C8.40258 8.774 11.6986 6.5 11.1986 1.5C17.1986 5.5 20.1986 9.5 14.1986 15.5C15.1986 15.5 16.6986 15.5 19.1986 13.03C19.4686 13.803 19.6986 14.634 19.6986 15.5C19.6986 17.4891 18.9084 19.3968 17.5019 20.8033C16.0954 22.2098 14.1877 23 12.1986 23Z" fill="#EC2828"/>
</g>
<defs>
<clipPath id="clip0_1921_43418">
<rect width="24" height="24" fill="white" transform="translate(0.199219)"/>
</clipPath>
</defs>
</svg>
