<svg width="24" height="25" viewBox="0 0 24 25" fill="none" xmlns="http://www.w3.org/2000/svg">
<path d="M12 4.95074C9.64418 2.83999 6.02125 2.91656 3.75736 5.18045C1.41421 7.5236 1.41421 11.3226 3.75736 13.6657L10.5858 20.4942C11.3668 21.2752 12.6332 21.2752 13.4142 20.4942L20.2426 13.6657C22.5858 11.3226 22.5858 7.5236 20.2426 5.18045C17.9787 2.91656 14.3558 2.83999 12 4.95074ZM10.8284 6.59467L11.2929 7.05913C11.6834 7.44966 12.3166 7.44966 12.7071 7.05913L13.1716 6.59467C14.7337 5.03257 17.2663 5.03257 18.8284 6.59467C20.3905 8.15677 20.3905 10.6894 18.8284 12.2515L12 19.08L5.17157 12.2515C3.60948 10.6894 3.60948 8.15677 5.17157 6.59467C6.73367 5.03257 9.26633 5.03257 10.8284 6.59467Z" fill="#8C9299"/>
</svg>
