<svg width="48" height="48" viewBox="0 0 48 48" fill="none" xmlns="http://www.w3.org/2000/svg">
<path d="M23.7227 16.0801C19.3992 16.0801 15.8945 19.6259 15.8945 24.0001C15.8945 28.3743 19.3992 31.9201 23.7227 31.9201C28.0463 31.9201 31.551 28.3743 31.551 24.0001C31.551 19.6259 28.0463 16.0801 23.7227 16.0801ZM27.6368 24.7921H22.9399V20.0401H24.5056V23.2081H27.6368V24.7921Z" fill="#EF7D35"/>
<path d="M14.9363 17.7352L13.4166 14.0861L10.6924 15.2474C13.5566 10.9072 18.4463 8.15995 23.7215 8.15995C32.354 8.15995 39.3779 15.2662 39.3779 24H43.292C43.292 13.0822 34.5127 4.19995 23.7215 4.19995C16.8933 4.19995 10.5897 7.88572 7.07188 13.6465L6.10607 10.7557L2.39844 12.0239L5.63246 21.7002L14.9363 17.7352Z" fill="#EF7D35"/>
<path d="M32.5081 30.2647L34.0277 33.9139L36.7519 32.7526C33.8878 37.0928 28.9981 39.84 23.7229 39.84C15.0903 39.84 8.06645 32.7338 8.06645 24H4.15234C4.15234 34.9177 12.9317 43.8 23.7229 43.8C30.551 43.8 36.8547 40.1142 40.3725 34.3534L41.3383 37.2442L45.0459 35.976L41.8119 26.2998L32.5081 30.2647Z" fill="#EF7D35"/>
</svg>
