<svg width="14" height="14" viewBox="0 0 14 14" fill="none" xmlns="http://www.w3.org/2000/svg">
<g clip-path="url(#clip0_2442_48498)">
<path d="M11.6667 1.75C11.9887 1.75 12.25 2.01133 12.25 2.33333V3.35825L11.0833 4.52492V2.91667H2.91667V7.64167L5.25 5.30833L7.77467 7.83358L6.94925 8.65783L5.25 6.95917L2.91667 9.29192V11.0833H9.06092L9.47392 11.0839L10.2492 10.3081L11.025 11.0833H11.0833V9.4745L12.25 8.30783V11.6667C12.25 11.9887 11.9887 12.25 11.6667 12.25H2.33333C2.0125 12.25 1.75 11.9875 1.75 11.6667V2.33333C1.75 2.01133 2.01133 1.75 2.33333 1.75H11.6667ZM12.7038 4.55467L13.5287 5.3795L8.9915 9.91667L8.1655 9.9155L8.16667 9.09183C9.93854 7.31996 10.932 6.32654 12.7038 4.55467ZM9.04167 4.08333C9.52467 4.08333 9.91667 4.47533 9.91667 4.95833C9.91667 5.44133 9.52467 5.83333 9.04167 5.83333C8.55867 5.83333 8.16667 5.44133 8.16667 4.95833C8.16667 4.47533 8.55867 4.08333 9.04167 4.08333Z" fill="white"/>
</g>
<defs>
<clipPath id="clip0_2442_48498">
<rect width="14" height="14" fill="white"/>
</clipPath>
</defs>
</svg>
