<svg width="30" height="30" viewBox="0 0 30 30" fill="none" xmlns="http://www.w3.org/2000/svg">
<g clip-path="url(#clip0_2442_48505)">
<path d="M26.25 18.75V22.5H30V25H26.25V28.75H23.75V25H20V22.5H23.75V18.75H26.25ZM26.26 3.75C26.945 3.75 27.5 4.30625 27.5 4.99125V16.6775C26.697 16.3939 25.8516 16.2493 25 16.25V6.25H5L5.00125 23.75L16.6163 12.1337C16.8312 11.9181 17.1175 11.7884 17.4214 11.7691C17.7252 11.7497 18.0257 11.8421 18.2662 12.0288L18.3825 12.135L22.815 16.5725C21.8458 16.8678 20.9465 17.3564 20.1712 18.0087C19.3959 18.661 18.7608 19.4636 18.3041 20.368C17.8474 21.2724 17.5785 22.26 17.5138 23.2711C17.4491 24.2822 17.5898 25.296 17.9275 26.2512L3.74 26.25C3.41102 26.2497 3.09562 26.1187 2.86311 25.886C2.6306 25.6533 2.5 25.3377 2.5 25.0088V4.99125C2.50229 4.66297 2.63363 4.34877 2.86564 4.11652C3.09766 3.88427 3.41173 3.75262 3.74 3.75H26.26ZM10 8.75C10.663 8.75 11.2989 9.01339 11.7678 9.48223C12.2366 9.95107 12.5 10.587 12.5 11.25C12.5 11.913 12.2366 12.5489 11.7678 13.0178C11.2989 13.4866 10.663 13.75 10 13.75C9.33696 13.75 8.70107 13.4866 8.23223 13.0178C7.76339 12.5489 7.5 11.913 7.5 11.25C7.5 10.587 7.76339 9.95107 8.23223 9.48223C8.70107 9.01339 9.33696 8.75 10 8.75Z" fill="#EF7D35"/>
</g>
<defs>
<clipPath id="clip0_2442_48505">
<rect width="30" height="30" fill="white"/>
</clipPath>
</defs>
</svg>
