<svg width="38" height="38" viewBox="0 0 38 38" fill="none" xmlns="http://www.w3.org/2000/svg">
<path fill-rule="evenodd" clip-rule="evenodd" d="M23.7502 0L38 14.2498V35.3333C38 36.8061 36.8061 38 35.3333 38H2.66667C1.19391 38 0 36.8061 0 35.3333V2.66667C0 1.19391 1.19391 0 2.66667 0H23.7502Z" fill="#F2F2F2"/>
<path d="M23.75 14.2498L38 14.2498L23.75 -0.000244141L23.75 14.2498Z" fill="#BDBDBD"/>
<rect x="2.375" y="19" width="33.25" height="15.4375" rx="1.33333" fill="#3B82F6"/>
<path d="M11.7583 22.3841H13.3161V28.4797C13.3132 29.0384 13.1947 29.5196 12.9605 29.9231C12.7263 30.3239 12.3989 30.6329 11.9784 30.8502C11.5608 31.0646 11.074 31.1719 10.518 31.1719C10.0101 31.1719 9.55291 31.0816 9.14654 30.901C8.743 30.7175 8.4227 30.4466 8.18565 30.0882C7.9486 29.7298 7.83008 29.284 7.83008 28.7506H9.39206C9.39488 28.9848 9.44568 29.1866 9.54445 29.3559C9.64604 29.5252 9.78573 29.655 9.96351 29.7454C10.1413 29.8357 10.3459 29.8808 10.5773 29.8808C10.8285 29.8808 11.0415 29.8286 11.2165 29.7242C11.3914 29.6169 11.5241 29.4589 11.6144 29.2501C11.7075 29.0413 11.7555 28.7845 11.7583 28.4797V22.3841Z" fill="white"/>
<path d="M15.0198 31.0534V22.3841H18.2708C18.9368 22.3841 19.4955 22.5083 19.9471 22.7567C20.4014 23.005 20.7443 23.3465 20.9757 23.781C21.2099 24.2128 21.327 24.7038 21.327 25.2541C21.327 25.8101 21.2099 26.3039 20.9757 26.7357C20.7415 27.1674 20.3958 27.5075 19.9386 27.7558C19.4814 28.0014 18.9184 28.1241 18.2496 28.1241H16.095V26.833H18.038C18.4274 26.833 18.7463 26.7653 18.9946 26.6299C19.243 26.4944 19.4264 26.3081 19.5449 26.0711C19.6663 25.8341 19.7269 25.5617 19.7269 25.2541C19.7269 24.9465 19.6663 24.6756 19.5449 24.4414C19.4264 24.2072 19.2416 24.0251 18.9904 23.8953C18.7421 23.7627 18.4218 23.6964 18.0295 23.6964H16.5903V31.0534H15.0198Z" fill="white"/>
<path d="M28.4988 25.1525C28.4282 24.924 28.3309 24.7194 28.2067 24.5388C28.0854 24.3553 27.9386 24.1987 27.7665 24.0689C27.5972 23.9391 27.4025 23.8417 27.1823 23.7768C26.9622 23.7091 26.7223 23.6752 26.4627 23.6752C25.9971 23.6752 25.5823 23.7923 25.2182 24.0266C24.8542 24.2608 24.5677 24.6051 24.3589 25.0594C24.1529 25.5109 24.0499 26.0612 24.0499 26.7103C24.0499 27.365 24.1529 27.9195 24.3589 28.3739C24.5649 28.8282 24.8514 29.1739 25.2182 29.4109C25.5851 29.6452 26.0112 29.7623 26.4966 29.7623C26.9368 29.7623 27.3178 29.6776 27.6395 29.5083C27.964 29.339 28.2138 29.0991 28.3887 28.7887C28.5637 28.4754 28.6512 28.1086 28.6512 27.6881L29.0068 27.7431H26.6532V26.5156H30.1708V27.5569C30.1708 28.2991 30.0128 28.9411 29.6967 29.4829C29.3807 30.0247 28.9461 30.4424 28.393 30.7359C27.8399 31.0265 27.2049 31.1719 26.4881 31.1719C25.6895 31.1719 24.9882 30.9927 24.3843 30.6343C23.7832 30.2731 23.3134 29.7609 22.9747 29.0977C22.6389 28.4317 22.471 27.6415 22.471 26.7272C22.471 26.0274 22.5698 25.4023 22.7673 24.852C22.9677 24.3017 23.247 23.8347 23.6054 23.4509C23.9638 23.0643 24.3843 22.7708 24.8669 22.5704C25.3494 22.3672 25.8743 22.2656 26.4416 22.2656C26.9213 22.2656 27.3686 22.3362 27.7834 22.4773C28.1983 22.6156 28.5665 22.8131 28.8882 23.0699C29.2128 23.3267 29.4794 23.6315 29.6883 23.9842C29.8971 24.337 30.034 24.7264 30.0989 25.1525H28.4988Z" fill="white"/>
<path d="M11.7583 22.3841H13.3161V28.4797C13.3132 29.0384 13.1947 29.5196 12.9605 29.9231C12.7263 30.3239 12.3989 30.6329 11.9784 30.8502C11.5608 31.0646 11.074 31.1719 10.518 31.1719C10.0101 31.1719 9.55291 31.0816 9.14654 30.901C8.743 30.7175 8.4227 30.4466 8.18565 30.0882C7.9486 29.7298 7.83008 29.284 7.83008 28.7506H9.39206C9.39488 28.9848 9.44568 29.1866 9.54445 29.3559C9.64604 29.5252 9.78573 29.655 9.96351 29.7454C10.1413 29.8357 10.3459 29.8808 10.5773 29.8808C10.8285 29.8808 11.0415 29.8286 11.2165 29.7242C11.3914 29.6169 11.5241 29.4589 11.6144 29.2501C11.7075 29.0413 11.7555 28.7845 11.7583 28.4797V22.3841Z" stroke="white" stroke-width="0.5"/>
<path d="M15.0198 31.0534V22.3841H18.2708C18.9368 22.3841 19.4955 22.5083 19.9471 22.7567C20.4014 23.005 20.7443 23.3465 20.9757 23.781C21.2099 24.2128 21.327 24.7038 21.327 25.2541C21.327 25.8101 21.2099 26.3039 20.9757 26.7357C20.7415 27.1674 20.3958 27.5075 19.9386 27.7558C19.4814 28.0014 18.9184 28.1241 18.2496 28.1241H16.095V26.833H18.038C18.4274 26.833 18.7463 26.7653 18.9946 26.6299C19.243 26.4944 19.4264 26.3081 19.5449 26.0711C19.6663 25.8341 19.7269 25.5617 19.7269 25.2541C19.7269 24.9465 19.6663 24.6756 19.5449 24.4414C19.4264 24.2072 19.2416 24.0251 18.9904 23.8953C18.7421 23.7627 18.4218 23.6964 18.0295 23.6964H16.5903V31.0534H15.0198Z" stroke="white" stroke-width="0.5"/>
<path d="M28.4988 25.1525C28.4282 24.924 28.3309 24.7194 28.2067 24.5388C28.0854 24.3553 27.9386 24.1987 27.7665 24.0689C27.5972 23.9391 27.4025 23.8417 27.1823 23.7768C26.9622 23.7091 26.7223 23.6752 26.4627 23.6752C25.9971 23.6752 25.5823 23.7923 25.2182 24.0266C24.8542 24.2608 24.5677 24.6051 24.3589 25.0594C24.1529 25.5109 24.0499 26.0612 24.0499 26.7103C24.0499 27.365 24.1529 27.9195 24.3589 28.3739C24.5649 28.8282 24.8514 29.1739 25.2182 29.4109C25.5851 29.6452 26.0112 29.7623 26.4966 29.7623C26.9368 29.7623 27.3178 29.6776 27.6395 29.5083C27.964 29.339 28.2138 29.0991 28.3887 28.7887C28.5637 28.4754 28.6512 28.1086 28.6512 27.6881L29.0068 27.7431H26.6532V26.5156H30.1708V27.5569C30.1708 28.2991 30.0128 28.9411 29.6967 29.4829C29.3807 30.0247 28.9461 30.4424 28.393 30.7359C27.8399 31.0265 27.2049 31.1719 26.4881 31.1719C25.6895 31.1719 24.9882 30.9927 24.3843 30.6343C23.7832 30.2731 23.3134 29.7609 22.9747 29.0977C22.6389 28.4317 22.471 27.6415 22.471 26.7272C22.471 26.0274 22.5698 25.4023 22.7673 24.852C22.9677 24.3017 23.247 23.8347 23.6054 23.4509C23.9638 23.0643 24.3843 22.7708 24.8669 22.5704C25.3494 22.3672 25.8743 22.2656 26.4416 22.2656C26.9213 22.2656 27.3686 22.3362 27.7834 22.4773C28.1983 22.6156 28.5665 22.8131 28.8882 23.0699C29.2128 23.3267 29.4794 23.6315 29.6883 23.9842C29.8971 24.337 30.034 24.7264 30.0989 25.1525H28.4988Z" stroke="white" stroke-width="0.5"/>
</svg>
