<svg width="20" height="20" viewBox="0 0 20 20" fill="none" xmlns="http://www.w3.org/2000/svg">
<path d="M8.33268 9.99992C8.33268 10.9204 9.07887 11.6666 9.99935 11.6666C10.9198 11.6666 11.666 10.9204 11.666 9.99992C11.666 9.07944 10.9198 8.33325 9.99935 8.33325C9.07887 8.33325 8.33268 9.07944 8.33268 9.99992Z" fill="#454647"/>
<path d="M8.33268 4.99992C8.33268 5.92039 9.07887 6.66659 9.99935 6.66659C10.9198 6.66659 11.666 5.92039 11.666 4.99992C11.666 4.07944 10.9198 3.33325 9.99935 3.33325C9.07887 3.33325 8.33268 4.07944 8.33268 4.99992Z" fill="#454647"/>
<path d="M8.33268 14.9999C8.33268 15.9204 9.07887 16.6666 9.99935 16.6666C10.9198 16.6666 11.666 15.9204 11.666 14.9999C11.666 14.0794 10.9198 13.3333 9.99935 13.3333C9.07887 13.3333 8.33268 14.0794 8.33268 14.9999Z" fill="#454647"/>
</svg>
