<svg width="24" height="24" viewBox="0 0 24 24" fill="none" xmlns="http://www.w3.org/2000/svg">
<path fill-rule="evenodd" clip-rule="evenodd" d="M11.6565 3.08327C11.8721 2.97224 12.1279 2.97224 12.3435 3.08327L20.5935 7.33327C20.8431 7.46188 21 7.71917 21 8V16C21 16.2808 20.8431 16.5381 20.5935 16.6667L12.3435 20.9167C12.1279 21.0278 11.8721 21.0278 11.6565 20.9167L3.40653 16.6667C3.15688 16.5381 3 16.2808 3 16V8C3 7.71917 3.15688 7.46188 3.40653 7.33327L11.6565 3.08327ZM4.5 9.19714V15.5427L11.25 19.02V12.4699L4.5 9.19714ZM12.75 12.4699V19.02L19.5 15.5427V9.19714L12.75 12.4699ZM18.5728 7.97967L16.0666 9.19479L9.47052 5.89673L12 4.59367L18.5728 7.97967ZM7.8185 6.74778L5.42717 7.97967L12 11.1665L14.3638 10.0204L7.8185 6.74778Z" fill="#727478"/>
</svg>
