<svg width="38" height="38" viewBox="0 0 38 38" fill="none" xmlns="http://www.w3.org/2000/svg">
<path fill-rule="evenodd" clip-rule="evenodd" d="M2.33334 0C1.04467 0 0 1.04467 0 2.33334V35.6667C0 36.9553 1.04467 38 2.33334 38H35.6667C36.9553 38 38 36.9553 38 35.6667V14.2491L23.751 9.27985e-05L38 9.15528e-05V0H2.33334Z" fill="white"/>
<path d="M23.75 14.25L38 14.25L23.75 0L23.75 14.25Z" fill="#DFDFDF"/>
<rect x="2.375" y="19" width="33.25" height="15.4375" rx="1.28336" fill="#EC2828"/>
<path d="M7.97266 31.1719V22.2656H11.2516C11.9233 22.2656 12.4869 22.3932 12.9423 22.6483C13.4006 22.9034 13.7464 23.2542 13.9798 23.7007C14.2161 24.1443 14.3342 24.6487 14.3342 25.2141C14.3342 25.7852 14.2161 26.2926 13.9798 26.7361C13.7436 27.1797 13.3949 27.5291 12.9338 27.7842C12.4727 28.0364 11.9048 28.1625 11.2303 28.1625H9.0571V26.8362H11.0168C11.4096 26.8362 11.7312 26.7666 11.9817 26.6274C12.2322 26.4883 12.4172 26.2969 12.5367 26.0534C12.6591 25.8099 12.7203 25.5301 12.7203 25.2141C12.7203 24.8981 12.6591 24.6198 12.5367 24.3791C12.4172 24.1385 12.2307 23.9515 11.9774 23.8181C11.727 23.6819 11.4039 23.6137 11.0083 23.6137H9.55663V31.1719H7.97266Z" fill="white"/>
<path d="M18.673 31.1719H15.71V22.2656H18.7328C19.6009 22.2656 20.3467 22.4439 20.97 22.8005C21.5962 23.1542 22.0772 23.663 22.4131 24.3269C22.749 24.9908 22.9169 25.7852 22.9169 26.7101C22.9169 27.6378 22.7475 28.4351 22.4088 29.1019C22.073 29.7687 21.5877 30.2804 20.9529 30.637C20.3211 30.9936 19.5611 31.1719 18.673 31.1719ZM17.294 29.7759H18.5962C19.2053 29.7759 19.7134 29.6629 20.1204 29.4367C20.5274 29.2077 20.8334 28.867 21.0383 28.4148C21.2433 27.9596 21.3457 27.3914 21.3457 26.7101C21.3457 26.0287 21.2433 25.4634 21.0383 25.014C20.8334 24.5618 20.5303 24.224 20.1289 24.0008C19.7304 23.7746 19.2352 23.6616 18.6431 23.6616H17.294V29.7759Z" fill="white"/>
<path d="M24.4219 31.1719V22.2656H30.0234V23.6181H26.0059V26.036H29.6392V27.3885H26.0059V31.1719H24.4219Z" fill="white"/>
<path d="M7.97266 31.1719V22.2656H11.2516C11.9233 22.2656 12.4869 22.3932 12.9423 22.6483C13.4006 22.9034 13.7464 23.2542 13.9798 23.7007C14.2161 24.1443 14.3342 24.6487 14.3342 25.2141C14.3342 25.7852 14.2161 26.2926 13.9798 26.7361C13.7436 27.1797 13.3949 27.5291 12.9338 27.7842C12.4727 28.0364 11.9048 28.1625 11.2303 28.1625H9.0571V26.8362H11.0168C11.4096 26.8362 11.7312 26.7666 11.9817 26.6274C12.2322 26.4883 12.4172 26.2969 12.5367 26.0534C12.6591 25.8099 12.7203 25.5301 12.7203 25.2141C12.7203 24.8981 12.6591 24.6198 12.5367 24.3791C12.4172 24.1385 12.2307 23.9515 11.9774 23.8181C11.727 23.6819 11.4039 23.6137 11.0083 23.6137H9.55663V31.1719H7.97266Z" stroke="white" stroke-width="0.583334"/>
<path d="M18.673 31.1719H15.71V22.2656H18.7328C19.6009 22.2656 20.3467 22.4439 20.97 22.8005C21.5962 23.1542 22.0772 23.663 22.4131 24.3269C22.749 24.9908 22.9169 25.7852 22.9169 26.7101C22.9169 27.6378 22.7475 28.4351 22.4088 29.1019C22.073 29.7687 21.5877 30.2804 20.9529 30.637C20.3211 30.9936 19.5611 31.1719 18.673 31.1719ZM17.294 29.7759H18.5962C19.2053 29.7759 19.7134 29.6629 20.1204 29.4367C20.5274 29.2077 20.8334 28.867 21.0383 28.4148C21.2433 27.9596 21.3457 27.3914 21.3457 26.7101C21.3457 26.0287 21.2433 25.4634 21.0383 25.014C20.8334 24.5618 20.5303 24.224 20.1289 24.0008C19.7304 23.7746 19.2352 23.6616 18.6431 23.6616H17.294V29.7759Z" stroke="white" stroke-width="0.583334"/>
<path d="M24.4219 31.1719V22.2656H30.0234V23.6181H26.0059V26.036H29.6392V27.3885H26.0059V31.1719H24.4219Z" stroke="white" stroke-width="0.583334"/>
</svg>
