<svg width="20" height="20" viewBox="0 0 20 20" fill="none" xmlns="http://www.w3.org/2000/svg">
<path fill-rule="evenodd" clip-rule="evenodd" d="M15.8327 1.66675C17.2134 1.66675 18.3327 2.78604 18.3327 4.16675V15.8334C18.3327 17.2141 17.2134 18.3334 15.8327 18.3334H4.16602C2.7853 18.3334 1.66602 17.2141 1.66602 15.8334V4.16675C1.66602 2.78604 2.7853 1.66675 4.16602 1.66675H15.8327ZM16.666 10.2517L13.1927 15.4623C12.9363 15.847 12.4213 15.9449 12.0444 15.6984L11.9659 15.6403L7.6556 12.0484L4.35602 16.6667H15.8327C16.2929 16.6667 16.666 16.2937 16.666 15.8334V10.2517ZM15.8327 3.33341H4.16602C3.70578 3.33341 3.33268 3.70651 3.33268 4.16675V15.2317L6.82124 10.3491C7.08282 9.98283 7.58226 9.89484 7.95038 10.1326L8.03284 10.1932L12.3204 13.7662L16.666 7.24675V4.16675C16.666 3.70651 16.2929 3.33341 15.8327 3.33341ZM6.66602 5.00008C7.58649 5.00008 8.33268 5.74627 8.33268 6.66675C8.33268 7.58722 7.58649 8.33341 6.66602 8.33341C5.74554 8.33341 4.99935 7.58722 4.99935 6.66675C4.99935 5.74627 5.74554 5.00008 6.66602 5.00008Z" fill="#454647"/>
</svg>
