<svg width="48" height="48" viewBox="0 0 48 48" fill="none" xmlns="http://www.w3.org/2000/svg">
<path fill-rule="evenodd" clip-rule="evenodd" d="M20.0838 22.0964C25.1914 22.0964 29.3321 17.9557 29.3321 12.8482C29.3321 7.74056 25.1914 3.59985 20.0838 3.59985C14.9762 3.59985 10.8355 7.74056 10.8355 12.8482C10.8355 17.9557 14.9762 22.0964 20.0838 22.0964ZM27.1028 29.7472C26.9782 30.3601 26.9153 30.984 26.9153 31.6095C26.9153 38.1 30.2992 39.9 34.3937 40.8V44.1846L4.19922 43.9602C4.36483 39.6567 6.00025 35.7198 8.84732 32.8094C11.8032 29.7878 15.7937 28.1235 20.0838 28.1235C22.5168 28.1203 24.9182 28.6756 27.1028 29.7472Z" fill="#EF7D35"/>
<path d="M35.506 39.2473C31.6884 39.2473 28.5938 36.1527 28.5938 32.3351C28.5938 28.5175 31.6884 25.4229 35.506 25.4229C39.3236 25.4229 42.4182 28.5175 42.4182 32.3351C42.4182 36.1527 39.3236 39.2473 35.506 39.2473ZM34.8148 34.4087V35.7912H36.1972V34.4087H34.8148ZM36.1972 33.2717C36.7527 33.1043 37.2296 32.7429 37.541 32.2533C37.8525 31.7638 37.9777 31.1787 37.894 30.6046C37.8102 30.0305 37.523 29.5055 37.0847 29.1254C36.6464 28.7452 36.0862 28.5351 35.506 28.5334C34.9467 28.5333 34.4046 28.727 33.972 29.0815C33.5394 29.436 33.2429 29.9294 33.133 30.4778L34.4892 30.7494C34.5277 30.5569 34.62 30.3792 34.7556 30.2371C34.8911 30.095 35.0642 29.9943 35.2547 29.9467C35.4452 29.8991 35.6453 29.9066 35.8317 29.9683C36.0181 30.03 36.1832 30.1434 36.3077 30.2952C36.4322 30.4471 36.511 30.6311 36.535 30.826C36.559 31.0209 36.5271 31.2186 36.4431 31.3961C36.3591 31.5736 36.2265 31.7236 36.0606 31.8286C35.8947 31.9337 35.7023 31.9895 35.506 31.9895C35.3227 31.9895 35.1468 32.0623 35.0172 32.1919C34.8876 32.3216 34.8148 32.4974 34.8148 32.6807V33.7175H36.1972V33.2717Z" fill="#EF7D35"/>
</svg>
