<svg width="48" height="48" viewBox="0 0 48 48" fill="none" xmlns="http://www.w3.org/2000/svg">
<path d="M42.9239 3.45451C42.3562 2.9287 41.6806 2.5117 40.9363 2.22769C40.192 1.94367 39.3938 1.79828 38.5879 1.79994H9.13587C7.50873 1.8005 5.94841 2.39495 4.79785 3.45264C3.64729 4.51034 3.00064 5.94472 3.00003 7.44052V45.0444C2.99841 45.2493 3.05875 45.4507 3.17431 45.626C3.28987 45.8013 3.45612 45.9436 3.65452 46.0371C3.85204 46.1288 4.07219 46.1715 4.29317 46.1609C4.51414 46.1504 4.72829 46.087 4.91441 45.9769L9.13587 43.3898L13.3737 45.9769C13.5771 46.102 13.8162 46.1687 14.0609 46.1687C14.3056 46.1687 14.5447 46.102 14.7481 45.9769L18.9696 43.3898L23.191 45.9769C23.3944 46.102 23.6336 46.1687 23.8783 46.1687C24.1229 46.1687 24.3621 46.102 24.5655 45.9769L28.7869 43.3898L32.992 45.9769C33.1766 46.0907 33.3913 46.1564 33.6133 46.167C33.8352 46.1775 34.0562 46.1326 34.2526 46.0369C34.4489 45.9412 34.6134 45.7984 34.7286 45.6236C34.8437 45.4489 34.9052 45.2487 34.9064 45.0444V16.0894H43.4966C43.8213 16.0872 44.1321 15.9677 44.3617 15.7566C44.5914 15.5455 44.7214 15.2598 44.7238 14.9613V7.44052C44.7256 6.69969 44.5674 5.96589 44.2584 5.28167C43.9495 4.59744 43.4959 3.97639 42.9239 3.45451ZM18.9532 17.5936C17.8684 17.5969 16.8191 17.2387 15.9995 16.5853C15.18 15.9319 14.6459 15.0276 14.4961 14.0399C14.3463 13.0523 14.5911 12.0481 15.1849 11.2136C15.7788 10.3791 16.6816 9.77071 17.726 9.50121V8.94467C17.726 8.64548 17.8553 8.35854 18.0855 8.14698C18.3156 7.93541 18.6278 7.81656 18.9532 7.81656C19.2787 7.81656 19.5908 7.93541 19.821 8.14698C20.0511 8.35854 20.1804 8.64548 20.1804 8.94467V9.32071H22.2257C22.5511 9.32071 22.8633 9.43957 23.0934 9.65113C23.3235 9.86269 23.4528 10.1496 23.4528 10.4488C23.4528 10.748 23.3235 11.035 23.0934 11.2465C22.8633 11.4581 22.5511 11.5769 22.2257 11.5769H18.9532C18.4108 11.5769 17.8905 11.775 17.507 12.1276C17.1234 12.4802 16.9079 12.9585 16.9079 13.4571C16.9079 13.9558 17.1234 14.434 17.507 14.7866C17.8905 15.1392 18.4108 15.3373 18.9532 15.3373C20.038 15.334 21.0874 15.6921 21.9069 16.3455C22.7264 16.9989 23.2605 17.9033 23.4103 18.8909C23.5601 19.8786 23.3154 20.8828 22.7215 21.7173C22.1276 22.5518 21.2248 23.1602 20.1804 23.4297V23.9862C20.1804 24.2854 20.0511 24.5724 19.821 24.7839C19.5908 24.9955 19.2787 25.1143 18.9532 25.1143C18.6278 25.1143 18.3156 24.9955 18.0855 24.7839C17.8553 24.5724 17.726 24.2854 17.726 23.9862V23.6102H15.6808C15.3553 23.6102 15.0432 23.4913 14.813 23.2798C14.5829 23.0682 14.4536 22.7813 14.4536 22.4821C14.4536 22.1829 14.5829 21.8959 14.813 21.6844C15.0432 21.4728 15.3553 21.3539 15.6808 21.3539H18.9532C19.4957 21.3539 20.0159 21.1559 20.3995 20.8033C20.783 20.4506 20.9985 19.9724 20.9985 19.4738C20.9985 18.9751 20.783 18.4969 20.3995 18.1443C20.0159 17.7916 19.4957 17.5936 18.9532 17.5936ZM25.4981 37.1476H12.4083C12.0829 37.1476 11.7707 37.0287 11.5406 36.8172C11.3104 36.6056 11.1812 36.3186 11.1812 36.0195C11.1812 35.7203 11.3104 35.4333 11.5406 35.2217C11.7707 35.0102 12.0829 34.8913 12.4083 34.8913H25.4981C25.8236 34.8913 26.1357 35.0102 26.3659 35.2217C26.596 35.4333 26.7253 35.7203 26.7253 36.0195C26.7253 36.3186 26.596 36.6056 26.3659 36.8172C26.1357 37.0287 25.8236 37.1476 25.4981 37.1476ZM28.7706 31.1309H9.13587C8.81041 31.1309 8.49827 31.0121 8.26813 30.8005C8.038 30.589 7.9087 30.302 7.9087 30.0028C7.9087 29.7036 8.038 29.4167 8.26813 29.2051C8.49827 28.9936 8.81041 28.8747 9.13587 28.8747H28.7706C29.096 28.8747 29.4082 28.9936 29.6383 29.2051C29.8684 29.4167 29.9977 29.7036 29.9977 30.0028C29.9977 30.302 29.8684 30.589 29.6383 30.8005C29.4082 31.0121 29.096 31.1309 28.7706 31.1309ZM42.2694 13.8332H34.9064V7.44052C34.9079 6.54335 35.2962 5.68331 35.9863 5.04892C36.6764 4.41452 37.612 4.05752 38.5879 4.05617C39.5639 4.05752 40.4994 4.41452 41.1895 5.04892C41.8796 5.68331 42.2679 6.54335 42.2694 7.44052V13.8332Z" fill="#EF7D35"/>
</svg>
