<svg width="24" height="25" viewBox="0 0 24 25" fill="none" xmlns="http://www.w3.org/2000/svg">
<path d="M4 7.50195C4 6.94967 4.44772 6.50195 5 6.50195H19C19.5523 6.50195 20 6.94967 20 7.50195C20 8.05424 19.5523 8.50195 19 8.50195H5C4.44772 8.50195 4 8.05424 4 7.50195ZM4 12.4953C4 11.943 4.44772 11.4953 5 11.4953H19C19.5523 11.4953 20 11.943 20 12.4953C20 13.0476 19.5523 13.4953 19 13.4953H5C4.44772 13.4953 4 13.0476 4 12.4953ZM4 17.4704C4 16.9181 4.44772 16.4704 5 16.4704H19C19.5523 16.4704 20 16.9181 20 17.4704C20 18.0227 19.5523 18.4704 19 18.4704H5C4.44772 18.4704 4 18.0227 4 17.4704Z" fill="#0D0D0D"/>
</svg>
