<svg width="19" height="20" viewBox="0 0 19 20" fill="none" xmlns="http://www.w3.org/2000/svg">
<path d="M7.66658 2.66659C4.62902 2.66659 2.16659 5.12902 2.16659 8.16658C2.16659 11.2042 4.62902 13.6666 7.66658 13.6666C10.7042 13.6666 13.1666 11.2042 13.1666 8.16658C13.1666 5.12902 10.7042 2.66659 7.66658 2.66659ZM0.333252 8.16658C0.333252 4.1165 3.6165 0.833252 7.66658 0.833252C11.7167 0.833252 14.9999 4.1165 14.9999 8.16658C14.9999 9.86124 14.4251 11.4216 13.4598 12.6634L18.3981 17.6017C18.7561 17.9597 18.7561 18.5401 18.3981 18.8981C18.0401 19.2561 17.4597 19.2561 17.1017 18.8981L12.1634 13.9598C10.9216 14.9251 9.36124 15.4999 7.66658 15.4999C3.6165 15.4999 0.333252 12.2167 0.333252 8.16658Z" fill="#EF7D35"/>
</svg>
