<svg width="48" height="48" viewBox="0 0 48 48" fill="none" xmlns="http://www.w3.org/2000/svg">
<path fill-rule="evenodd" clip-rule="evenodd" d="M18.9016 29.2751C12.7049 29.2751 8.48215 25.0968 8.48215 18.9001C8.48215 12.7035 12.7049 8.2968 18.9016 8.2968C25.0982 8.2968 28.6568 12.7035 28.6568 18.9001C28.6568 25.0968 25.0982 29.2751 18.9016 29.2751ZM3.60156 18.9001C3.60156 10.4501 10.4516 3.6001 18.9016 3.6001C27.3515 3.6001 34.2016 10.4501 34.2016 18.9001C34.2016 22.4178 33.0145 25.6582 31.019 28.2426C32.4021 27.8405 33.9562 28.1847 35.0466 29.2751L43.2066 37.4351C44.7999 39.0285 44.7999 41.6118 43.2066 43.2051C41.6133 44.7985 39.0299 44.7985 37.4366 43.2051L29.2766 35.0451C28.1862 33.9547 27.842 32.4006 28.2441 31.0175C25.6597 33.013 22.4193 34.2001 18.9016 34.2001C10.4516 34.2001 3.60156 27.3501 3.60156 18.9001Z" fill="#EF7D35"/>
</svg>
