<svg width="20" height="20" viewBox="0 0 20 20" fill="none" xmlns="http://www.w3.org/2000/svg">
<g clip-path="url(#clip0_2224_25982)">
<path d="M17.1995 4.68345C17.3384 4.92398 17.3294 5.22232 17.1764 5.4541L9.04569 17.7686C8.88983 18.0046 8.61209 18.13 8.33196 18.0907C8.05183 18.0514 7.81928 17.8545 7.73435 17.5847L5.75365 11.2917L1.2941 6.42987C1.10289 6.22141 1.04864 5.92156 1.15469 5.65932C1.26074 5.39708 1.50817 5.21923 1.79053 5.20228L16.5205 4.31814C16.7978 4.3015 17.0606 4.44292 17.1995 4.68345ZM7.28019 11.2571L8.6707 15.6749L14.2411 7.23816L7.28019 11.2571ZM13.5079 5.96812L3.41618 6.57386L6.54693 9.98702L13.5079 5.96812Z" fill="#EF7D35"/>
</g>
<defs>
<clipPath id="clip0_2224_25982">
<rect width="20" height="20" fill="white"/>
</clipPath>
</defs>
</svg>
