<svg width="24" height="24" viewBox="0 0 24 24" fill="none" xmlns="http://www.w3.org/2000/svg">
<g clip-path="url(#clip0_3712_36670)">
<rect width="24" height="24" fill="#CACACA"/>
<path d="M2.13062 13.63C1.95125 12.5507 1.95125 11.4493 2.13062 10.37C3.23262 10.396 4.22262 9.86801 4.60762 8.93901C4.99262 8.00901 4.66562 6.93501 3.86762 6.17601C4.50404 5.2853 5.28319 4.50581 6.17362 3.86901C6.93362 4.66701 8.00762 4.99401 8.93762 4.60901C9.86762 4.22401 10.3946 3.23301 10.3676 2.13201C11.4475 1.95242 12.5497 1.95242 13.6296 2.13201C13.6026 3.23401 14.1306 4.22401 15.0596 4.60901C15.9896 4.99401 17.0636 4.66701 17.8226 3.86901C18.7133 4.50542 19.4928 5.28458 20.1296 6.17501C19.3316 6.93501 19.0046 8.00901 19.3896 8.93901C19.7746 9.86901 20.7656 10.396 21.8666 10.369C22.0462 11.4489 22.0462 12.5511 21.8666 13.631C20.7646 13.604 19.7746 14.132 19.3896 15.061C19.0046 15.991 19.3316 17.065 20.1296 17.824C19.4932 18.7147 18.7141 19.4942 17.8236 20.131C17.0636 19.333 15.9896 19.006 15.0596 19.391C14.1296 19.776 13.6026 20.767 13.6296 21.868C12.5497 22.0476 11.4475 22.0476 10.3676 21.868C10.3946 20.766 9.86662 19.776 8.93762 19.391C8.00762 19.006 6.93362 19.333 6.17462 20.131C5.28391 19.4946 4.50442 18.7154 3.86762 17.825C4.66562 17.065 4.99262 15.991 4.60762 15.061C4.22262 14.131 3.23162 13.604 2.13062 13.631V13.63ZM11.9986 15C12.7943 15 13.5573 14.6839 14.1199 14.1213C14.6826 13.5587 14.9986 12.7957 14.9986 12C14.9986 11.2044 14.6826 10.4413 14.1199 9.87869C13.5573 9.31608 12.7943 9.00001 11.9986 9.00001C11.203 9.00001 10.4399 9.31608 9.8773 9.87869C9.31469 10.4413 8.99862 11.2044 8.99862 12C8.99862 12.7957 9.31469 13.5587 9.8773 14.1213C10.4399 14.6839 11.203 15 11.9986 15Z" fill="white"/>
</g>
<defs>
<clipPath id="clip0_3712_36670">
<rect width="24" height="24" fill="white"/>
</clipPath>
</defs>
</svg>
