<svg width="24" height="24" viewBox="0 0 24 24" fill="none" xmlns="http://www.w3.org/2000/svg">
<path fill-rule="evenodd" clip-rule="evenodd" d="M5.07707 12.2155C5.45942 12.2155 5.76938 12.556 5.76938 12.976V19.4789H18.2309V12.976C18.2309 12.556 18.5409 12.2155 18.9232 12.2155C19.3056 12.2155 19.6155 12.556 19.6155 12.976V19.4789C19.6155 19.8823 19.4696 20.2692 19.21 20.5545C18.9503 20.8397 18.5981 21 18.2309 21H5.76938C5.40216 21 5.04998 20.8397 4.79031 20.5545C4.53064 20.2692 4.38477 19.8823 4.38477 19.4789V12.976C4.38477 12.556 4.69472 12.2155 5.07707 12.2155Z" fill="#727478"/>
<path fill-rule="evenodd" clip-rule="evenodd" d="M3.69231 8.07043C4.07466 8.07043 4.38461 8.41095 4.38461 8.831V10.3521C4.38461 10.9573 4.60343 11.5376 4.99293 11.9655C5.38243 12.3934 5.9107 12.6338 6.46154 12.6338C7.01237 12.6338 7.54064 12.3934 7.93014 11.9655C8.31964 11.5376 8.53846 10.9573 8.53846 10.3521V8.831C8.53846 8.41095 8.84841 8.07043 9.23077 8.07043C9.61312 8.07043 9.92307 8.41095 9.92307 8.831V10.3521C9.92307 11.3607 9.55838 12.328 8.90921 13.0411C8.26005 13.7543 7.37959 14.155 6.46154 14.155C5.54348 14.155 4.66302 13.7543 4.01386 13.0411C3.3647 12.328 3 11.3607 3 10.3521V8.831C3 8.41095 3.30996 8.07043 3.69231 8.07043Z" fill="#727478"/>
<path fill-rule="evenodd" clip-rule="evenodd" d="M9.23088 8.07043C9.61323 8.07043 9.92319 8.41095 9.92319 8.831V10.3521C9.92319 10.9573 10.142 11.5376 10.5315 11.9655C10.921 12.3934 11.4493 12.6338 12.0001 12.6338C12.5509 12.6338 13.0792 12.3934 13.4687 11.9655C13.8582 11.5376 14.077 10.9573 14.077 10.3521V8.831C14.077 8.41095 14.387 8.07043 14.7693 8.07043C15.1517 8.07043 15.4616 8.41095 15.4616 8.831V10.3521C15.4616 11.3607 15.0969 12.328 14.4478 13.0411C13.7986 13.7543 12.9182 14.155 12.0001 14.155C11.0821 14.155 10.2016 13.7543 9.55243 13.0411C8.90327 12.328 8.53857 11.3607 8.53857 10.3521V8.831C8.53857 8.41095 8.84853 8.07043 9.23088 8.07043Z" fill="#727478"/>
<path fill-rule="evenodd" clip-rule="evenodd" d="M14.7695 8.07043C15.1518 8.07043 15.4618 8.41095 15.4618 8.831V10.3521C15.4618 10.9573 15.6806 11.5376 16.0701 11.9655C16.4596 12.3934 16.9879 12.6338 17.5387 12.6338C18.0895 12.6338 18.6178 12.3934 19.0073 11.9655C19.3968 11.5376 19.6156 10.9573 19.6156 10.3521V8.831C19.6156 8.41095 19.9256 8.07043 20.3079 8.07043C20.6903 8.07043 21.0002 8.41095 21.0002 8.831V10.3521C21.0002 11.3607 20.6355 12.328 19.9864 13.0411C19.3372 13.7543 18.4567 14.155 17.5387 14.155C16.6206 14.155 15.7402 13.7543 15.091 13.0411C14.4418 12.328 14.0771 11.3607 14.0771 10.3521V8.831C14.0771 8.41095 14.3871 8.07043 14.7695 8.07043Z" fill="#727478"/>
<path d="M5.48644 3.92193C5.52016 3.81934 5.61594 3.75 5.72394 3.75H18.2761C18.3841 3.75 18.4798 3.81934 18.5136 3.92193L19.2261 3.68773L18.5136 3.92193L19.8562 8.00647C19.9093 8.16817 19.7889 8.33454 19.6187 8.33454H4.38134C4.21114 8.33454 4.09069 8.16817 4.14384 8.00647L5.48644 3.92193Z" stroke="#727478" stroke-width="1.5"/>
</svg>
