<svg width="22" height="22" viewBox="0 0 22 22" fill="none" xmlns="http://www.w3.org/2000/svg">
<path d="M5.50706 14.7911L3.79562 3.66671H2.7487C2.24244 3.66671 1.83203 3.25631 1.83203 2.75004C1.83203 2.24378 2.24244 1.83338 2.7487 1.83338H4.568C4.65592 1.83192 4.74184 1.84315 4.82373 1.86558C4.95384 1.90105 5.07242 1.96446 5.17263 2.04897C5.28065 2.13989 5.36809 2.25587 5.42519 2.38978C5.45665 2.46331 5.47877 2.54179 5.49006 2.62372L5.79155 4.58338H12.832V6.41671H6.0736L7.20181 13.75H15.8167L17.1917 9.16671H19.1057L17.3767 14.9301C17.2604 15.3178 16.9035 15.5834 16.4987 15.5834H6.42983C6.34325 15.5849 6.2586 15.574 6.17783 15.5523C6.04021 15.5155 5.91535 15.4474 5.81132 15.3562C5.71604 15.2728 5.63763 15.1695 5.58312 15.0515C5.54557 14.9704 5.51952 14.8829 5.50706 14.7911Z" fill="#EF7D35"/>
<path d="M9.16536 18.3334C9.16536 19.3459 8.34455 20.1667 7.33203 20.1667C6.31951 20.1667 5.4987 19.3459 5.4987 18.3334C5.4987 17.3209 6.31951 16.5 7.33203 16.5C8.34455 16.5 9.16536 17.3209 9.16536 18.3334Z" fill="#EF7D35"/>
<path d="M17.4154 18.3334C17.4154 19.3459 16.5946 20.1667 15.582 20.1667C14.5695 20.1667 13.7487 19.3459 13.7487 18.3334C13.7487 17.3209 14.5695 16.5 15.582 16.5C16.5946 16.5 17.4154 17.3209 17.4154 18.3334Z" fill="#EF7D35"/>
<path d="M17.4154 1.83338C17.9216 1.83338 18.332 2.24378 18.332 2.75004V3.66671H19.2487C19.755 3.66671 20.1654 4.07712 20.1654 4.58338C20.1654 5.08964 19.755 5.50004 19.2487 5.50004H18.332V6.41671C18.332 6.92297 17.9216 7.33338 17.4154 7.33338C16.9091 7.33338 16.4987 6.92297 16.4987 6.41671V5.50004H15.582C15.0758 5.50004 14.6654 5.08964 14.6654 4.58338C14.6654 4.07712 15.0758 3.66671 15.582 3.66671H16.4987V2.75004C16.4987 2.24378 16.9091 1.83338 17.4154 1.83338Z" fill="#EF7D35"/>
</svg>
