<svg width="15" height="16" viewBox="0 0 15 16" fill="none" xmlns="http://www.w3.org/2000/svg">
<path fill-rule="evenodd" clip-rule="evenodd" d="M8.58592 7.45675H10.5465C10.8437 7.45675 11.0773 7.21098 11.0773 6.91461C11.0773 6.61101 10.8437 6.37246 10.5465 6.37246H8.58592C8.28865 6.37246 8.05508 6.61101 8.05508 6.91461C8.05508 7.21098 8.28865 7.45675 8.58592 7.45675ZM12.8751 3.6986C13.3068 3.6986 13.5899 3.8504 13.873 4.18292C14.1562 4.51543 14.2057 4.99252 14.142 5.42551L13.4696 10.1675C13.3422 11.079 12.5778 11.7505 11.6789 11.7505H3.95703C3.01568 11.7505 2.23712 11.0139 2.15926 10.0598L1.5081 2.17987L0.43935 1.99193C0.156237 1.94133 -0.0419416 1.65941 0.00760309 1.37027C0.0571478 1.07462 0.333183 0.878721 0.623373 0.922816L2.31143 1.18232C2.55208 1.22642 2.72902 1.4281 2.75026 1.67387L2.88474 3.29308C2.90597 3.52511 3.08999 3.6986 3.31648 3.6986H12.8751ZM3.84364 12.893C3.2491 12.893 2.76781 13.3846 2.76781 13.9918C2.76781 14.5917 3.2491 15.0833 3.84364 15.0833C4.4311 15.0833 4.91239 14.5917 4.91239 13.9918C4.91239 13.3846 4.4311 12.893 3.84364 12.893ZM11.8062 12.893C11.2116 12.893 10.7304 13.3846 10.7304 13.9918C10.7304 14.5917 11.2116 15.0833 11.8062 15.0833C12.3936 15.0833 12.8749 14.5917 12.8749 13.9918C12.8749 13.3846 12.3936 12.893 11.8062 12.893Z" fill="white"/>
</svg>
