<svg width="24" height="25" viewBox="0 0 24 25" fill="none" xmlns="http://www.w3.org/2000/svg">
<g clip-path="url(#clip0_2000_51447)">
<path d="M6.5 2.49536H17.5C17.6552 2.49536 17.8084 2.53151 17.9472 2.60093C18.0861 2.67036 18.2069 2.77117 18.3 2.89536L21 6.49536V21.4954C21 21.7606 20.8946 22.0149 20.7071 22.2025C20.5196 22.39 20.2652 22.4954 20 22.4954H4C3.73478 22.4954 3.48043 22.39 3.29289 22.2025C3.10536 22.0149 3 21.7606 3 21.4954V6.49536L5.7 2.89536C5.79315 2.77117 5.91393 2.67036 6.05279 2.60093C6.19164 2.53151 6.34475 2.49536 6.5 2.49536ZM18.5 6.49536L17 4.49536H7L5.5 6.49536H18.5ZM9 10.4954H7V12.4954C7 13.8214 7.52678 15.0932 8.46447 16.0309C9.40215 16.9686 10.6739 17.4954 12 17.4954C13.3261 17.4954 14.5979 16.9686 15.5355 16.0309C16.4732 15.0932 17 13.8214 17 12.4954V10.4954H15V12.4954C15 13.291 14.6839 14.0541 14.1213 14.6167C13.5587 15.1793 12.7956 15.4954 12 15.4954C11.2044 15.4954 10.4413 15.1793 9.87868 14.6167C9.31607 14.0541 9 13.291 9 12.4954V10.4954Z" fill="white"/>
</g>
<defs>
<clipPath id="clip0_2000_51447">
<rect width="24" height="24" fill="white" transform="translate(0 0.495361)"/>
</clipPath>
</defs>
</svg>
