<svg width="48" height="48" viewBox="0 0 48 48" fill="none" xmlns="http://www.w3.org/2000/svg">
<path fill-rule="evenodd" clip-rule="evenodd" d="M37.9883 1.19995C39.4874 1.20149 40.7018 2.34064 40.7039 3.74599V4.21521H19.554V3.74599C19.5556 2.34064 20.7704 1.20149 22.2691 1.19995H37.9883ZM41.1409 5.59606H19.0881L15.3418 8.57318H44.7549L41.1409 5.59606ZM9.8252 25.8245L9.96871 27.2051H31.7315L31.2147 28.783H10.1326L10.276 30.1637H30.7624L30.3252 31.4974C30.0644 32.1881 29.3746 32.655 28.5932 32.6704H28.3065V32.6716H10.5366L11.4822 41.7686C11.6317 42.618 12.4168 43.2398 13.3346 43.2364H13.6624C14.0251 42.2867 14.9848 41.6534 16.0608 41.6534C17.1363 41.6534 18.096 42.2867 18.4591 43.2364H22.5546C22.9186 42.2879 23.8774 41.655 24.9521 41.6534C26.2793 41.6536 27.3842 42.6089 27.4914 43.8497C27.599 45.0901 26.6726 46.2 25.3625 46.4007C24.0524 46.6014 22.7978 45.8252 22.4786 44.6171H18.5335C18.2521 45.6834 17.2316 46.4323 16.0603 46.4323C14.8891 46.4323 13.8686 45.6834 13.5872 44.6171H13.3346C11.6839 44.6232 10.2764 43.496 10.0246 41.9658C10.0221 41.9524 10.0205 41.9385 10.0188 41.9246L7.53254 18.0025C7.383 17.153 6.59793 16.5313 5.68015 16.5343H2.53697C2.13026 16.5343 1.80078 16.2254 1.80078 15.844C1.80078 15.463 2.13026 15.1537 2.53697 15.1537H5.68015C7.33124 15.1479 8.7383 16.2751 8.99013 17.8049C8.9926 17.8183 8.99424 17.8322 8.99588 17.8461L9.58162 23.4811H32.9512L32.1838 25.8245H9.8252ZM14.0708 9.95378V12.2872C14.6299 13.174 15.6586 13.7064 16.7567 13.6771C17.8548 13.6478 18.8498 13.0623 19.3547 12.1473C19.4813 11.9177 19.7335 11.7736 20.0088 11.7736C20.284 11.7733 20.5363 11.917 20.6628 12.1462C21.1817 13.0869 22.2165 13.6775 23.3459 13.6775C24.4752 13.6775 25.5101 13.0869 26.0289 12.1462C26.1513 11.9239 26.3925 11.7814 26.6595 11.7733C26.9262 11.7656 27.1768 11.8935 27.314 12.108C27.3218 12.1207 27.33 12.1342 27.337 12.1473C27.8558 13.0877 28.8907 13.6783 30.02 13.6783C31.1494 13.6783 32.1842 13.0877 32.7031 12.1473C32.8292 11.9177 33.0815 11.7736 33.3567 11.7736C33.632 11.7733 33.8842 11.917 34.0112 12.1458C34.5296 13.0869 35.5645 13.6783 36.6938 13.6787C37.8236 13.6787 38.8588 13.0881 39.3777 12.1473C39.5042 11.9185 39.7557 11.7744 40.0309 11.7736H40.0322C40.3062 11.7733 40.558 11.9162 40.6849 12.1439C41.1886 13.0607 42.184 13.6486 43.2834 13.6787C44.3832 13.7083 45.4127 13.1755 45.9722 12.2872V9.95378H14.0708ZM36.6951 15.0598C37.967 15.0598 39.1797 14.5544 40.0322 13.6695C40.2351 13.8802 40.4598 14.0717 40.7039 14.24V32.6702H31.3277C31.492 32.4437 31.6243 32.1979 31.7209 31.9386C31.7237 31.931 31.7262 31.9233 31.7286 31.9157L31.7287 31.9155L34.6512 22.993C34.7198 22.7838 34.6784 22.5566 34.5399 22.3801C34.4011 22.2041 34.1813 22.1 33.9479 22.1H19.554V14.0798C19.7163 13.9534 19.8683 13.8159 20.0096 13.6691C20.8604 14.5559 22.074 15.0614 23.3459 15.0587C24.6182 15.0614 25.8313 14.5559 26.6826 13.6695C27.5338 14.5567 28.7473 15.0625 30.0201 15.0598C31.2928 15.0621 32.5063 14.5567 33.3576 13.6695C34.2104 14.5544 35.4228 15.0598 36.6951 15.0598ZM28.5543 34.0525H19.554V37.5902C19.5556 38.9959 20.7704 40.1347 22.2691 40.1362H37.9883C39.4874 40.1347 40.7018 38.9959 40.7039 37.5902V34.051H28.5929C28.5888 34.051 28.5846 34.0512 28.5804 34.0514C28.5781 34.0515 28.5759 34.0516 28.5736 34.0518C28.5671 34.0522 28.5606 34.0525 28.5543 34.0525ZM32.9693 37.1198C32.9693 37.5012 32.6395 37.8102 32.2331 37.8102H28.0247C27.618 37.8102 27.2885 37.5012 27.2885 37.1198C27.2885 36.7384 27.618 36.4295 28.0247 36.4295H32.2331C32.6395 36.4295 32.9693 36.7384 32.9693 37.1198Z" fill="#EF7D35"/>
</svg>
