<svg width="48" height="48" viewBox="0 0 48 48" fill="none" xmlns="http://www.w3.org/2000/svg">
<path d="M42.0537 19.0589L40.4169 11.0264C40.3114 10.5212 40.0882 10.0467 39.7649 9.63986C39.4416 9.23298 39.0268 8.90467 38.5528 8.6805V7.96783C38.5522 6.49132 37.9533 5.07545 36.8876 4.0314C35.8219 2.98736 34.3766 2.40058 32.8695 2.40002H14.6828C13.1757 2.40058 11.7304 2.98736 10.6647 4.0314C9.59899 5.07545 9.00003 6.49132 8.99947 7.96783V8.6805C8.52547 8.90467 8.11066 9.23298 7.78734 9.63986C7.46401 10.0467 7.24089 10.5212 7.13533 11.0264L5.49853 19.0589C5.25035 20.3058 5.46722 21.5986 6.1097 22.7021C6.75218 23.8056 7.77759 24.6466 8.99947 25.0721V40.8995C9.00031 42.3051 9.57062 43.6528 10.5851 44.6467C11.5996 45.6405 12.9753 46.1992 14.41 46.2001H33.1423C34.577 46.1992 35.9527 45.6405 36.9672 44.6467C37.9816 43.6528 38.5519 42.3051 38.5528 40.8995V25.0721C39.4809 24.7613 40.304 24.2066 40.9322 23.4686C41.4412 22.861 41.8059 22.1501 41.9998 21.3875C42.1938 20.6248 42.2122 19.8294 42.0537 19.0589ZM8.39325 22.046C8.09783 21.6967 7.88486 21.2877 7.76958 20.8483C7.65431 20.4089 7.63956 19.9499 7.7264 19.5043L9.3632 11.457C9.41608 11.2043 9.55675 10.9774 9.76126 10.815C9.96576 10.6525 10.2214 10.5646 10.4847 10.5661H14.9404L13.9402 20.41C13.8633 21.1721 13.4993 21.8788 12.9192 22.3922C12.3392 22.9055 11.5847 23.1887 10.803 23.1865C10.34 23.184 9.88345 23.0803 9.46657 22.883C9.04969 22.6857 8.68301 22.3998 8.39325 22.046ZM23.7761 41.7458C23.5513 41.7458 23.3316 41.6805 23.1446 41.5582C22.9577 41.4358 22.812 41.2619 22.726 41.0584C22.64 40.8549 22.6174 40.631 22.6613 40.415C22.7052 40.199 22.8134 40.0006 22.9724 39.8449C23.1313 39.6891 23.3339 39.5831 23.5544 39.5401C23.7749 39.4971 24.0034 39.5192 24.2111 39.6035C24.4188 39.6878 24.5963 39.8305 24.7212 40.0136C24.8461 40.1967 24.9128 40.412 24.9128 40.6323C24.9106 40.9269 24.7902 41.2089 24.5775 41.4173C24.3648 41.6257 24.0769 41.7437 23.7761 41.7458ZM36.2795 35.0645H11.2728V25.3691C12.0288 25.3104 12.7637 25.0963 13.4296 24.7407C14.0955 24.3851 14.6775 23.896 15.1375 23.3053C15.2146 23.4299 15.3007 23.549 15.3951 23.6616C15.9025 24.2122 16.5221 24.6526 17.2138 24.9544C17.9055 25.2561 18.6541 25.4126 19.4113 25.4136C20.2536 25.4133 21.0846 25.2245 21.841 24.8617C22.5975 24.4989 23.2593 23.9716 23.7761 23.3201C24.2759 23.9679 24.9216 24.4938 25.6629 24.8569C26.4043 25.2201 27.2212 25.4106 28.05 25.4136C28.8935 25.4116 29.7253 25.2205 30.4819 24.8551C31.2384 24.4897 31.8996 23.9595 32.4148 23.3053C32.8748 23.896 33.4567 24.3851 34.1226 24.7407C34.7885 25.0963 35.5234 25.3104 36.2795 25.3691V35.0645ZM24.9128 20.1131V10.5661H30.3233L31.263 19.8013C31.304 20.2284 31.254 20.6592 31.1161 21.0663C30.9782 21.4735 30.7553 21.8481 30.4618 22.1664C30.1682 22.4847 29.8103 22.7398 29.4108 22.9154C29.0112 23.091 28.5788 23.1833 28.1409 23.1865H28.05C27.2185 23.1849 26.4215 22.8606 25.8335 22.2845C25.2455 21.7085 24.9144 20.9277 24.9128 20.1131ZM36.2795 8.33901H11.2728V7.96783C11.2742 7.08223 11.6339 6.23329 12.2731 5.60708C12.9123 4.98087 13.7788 4.62848 14.6828 4.62715H32.8695C33.7734 4.62848 34.64 4.98087 35.2792 5.60708C35.9184 6.23329 36.2781 7.08223 36.2795 7.96783V8.33901Z" fill="#EF7D35"/>
</svg>
