<svg width="30" height="30" viewBox="0 0 30 30" fill="none" xmlns="http://www.w3.org/2000/svg">
<path d="M20 5C20.69 5 21.25 5.56 21.25 6.25V11.5L27.7662 6.9375C28.0487 6.74 28.4387 6.80875 28.6375 7.0925C28.71 7.1975 28.75 7.3225 28.75 7.45V22.55C28.75 22.895 28.47 23.175 28.125 23.175C27.9963 23.175 27.8712 23.135 27.7662 23.0625L21.25 18.5V23.75C21.25 24.44 20.69 25 20 25H2.5C1.81 25 1.25 24.44 1.25 23.75V6.25C1.25 5.56 1.81 5 2.5 5H20ZM10 10V13.75H6.25V16.25H9.99875L10 20H12.5L12.4987 16.25H16.25V13.75H12.5V10H10Z" fill="#EF7D35"/>
</svg>
